<svg width="53" height="53" viewBox="0 0 53 53" fill="none" xmlns="http://www.w3.org/2000/svg">
<g clip-path="url(#clip0_286_273)">
<path d="M40.5781 0H12.4219C5.56146 0 0 5.56146 0 12.4219V40.5781C0 47.4385 5.56146 53 12.4219 53H40.5781C47.4385 53 53 47.4385 53 40.5781V12.4219C53 5.56146 47.4385 0 40.5781 0Z" fill="#242938"/>
<path d="M26.5002 6.21094C15.0675 6.21094 5.79688 15.4799 5.79688 26.9143C5.79688 36.0615 11.729 43.8219 19.9551 46.5595C20.9897 46.7512 21.3696 46.1104 21.3696 45.5636C21.3696 45.0699 21.3503 43.4391 21.3414 41.7091C15.5818 42.9615 14.3665 39.2664 14.3665 39.2664C13.4247 36.8733 12.0677 36.2371 12.0677 36.2371C10.1893 34.9521 12.2093 34.9786 12.2093 34.9786C14.2883 35.1245 15.383 37.112 15.383 37.112C17.2295 40.2771 20.2262 39.362 21.4077 38.8331C21.5936 37.4948 22.13 36.5816 22.7221 36.0646C18.1236 35.5411 13.2896 33.7658 13.2896 25.8329C13.2896 23.5726 14.0984 21.7257 15.4227 20.2759C15.2078 19.7544 14.4991 17.6487 15.6233 14.797C15.6233 14.797 17.3618 14.2405 21.3182 16.9191C22.9697 16.4604 24.7406 16.2304 26.5002 16.2225C28.2596 16.2304 30.0322 16.4604 31.6865 16.9191C35.6382 14.2405 37.3743 14.797 37.3743 14.797C38.5012 17.6487 37.7923 19.7544 37.5772 20.2759C38.9047 21.7257 39.708 23.5726 39.708 25.8329C39.708 33.7848 34.8647 35.5357 30.2545 36.0481C30.9971 36.6907 31.6588 37.9505 31.6588 39.8821C31.6588 42.6522 31.6348 44.8817 31.6348 45.5636C31.6348 46.1146 32.0074 46.7601 33.0569 46.5568C41.2785 43.8161 47.2031 36.0584 47.2031 26.9143C47.2031 15.4799 37.9337 6.21094 26.5002 6.21094ZM13.5509 35.7032C13.5053 35.8061 13.3435 35.8369 13.1961 35.7663C13.0459 35.6988 12.9616 35.5584 13.0103 35.4553C13.0549 35.3493 13.217 35.3199 13.3668 35.391C13.5173 35.4585 13.603 35.6001 13.5509 35.7032ZM14.5693 36.6118C14.4706 36.7035 14.2776 36.6609 14.1466 36.5162C14.0112 36.3719 13.9858 36.1789 14.0859 36.086C14.1877 35.9945 14.3749 36.0373 14.5107 36.1816C14.6461 36.3278 14.6725 36.5193 14.5693 36.6118ZM15.268 37.7745C15.1411 37.8627 14.9337 37.7801 14.8055 37.5958C14.6786 37.4118 14.6786 37.1911 14.8082 37.1025C14.9368 37.0141 15.1411 37.0936 15.271 37.2764C15.3975 37.4635 15.3975 37.6844 15.268 37.7745ZM16.4495 39.121C16.336 39.2461 16.0943 39.2125 15.9174 39.0417C15.7364 38.8749 15.686 38.638 15.7998 38.5128C15.9147 38.3873 16.1578 38.4227 16.336 38.5921C16.5157 38.7585 16.5705 38.9972 16.4495 39.121ZM17.9765 39.5755C17.9265 39.7378 17.6937 39.8115 17.4592 39.7425C17.225 39.6715 17.0718 39.4817 17.1191 39.3177C17.1678 39.1546 17.4016 39.0778 17.6378 39.1515C17.8716 39.2221 18.0252 39.4107 17.9765 39.5755ZM19.7144 39.7684C19.7202 39.939 19.5214 40.0806 19.2752 40.0837C19.0277 40.0893 18.8275 39.951 18.8247 39.7831C18.8247 39.6107 19.0191 39.4705 19.2666 39.4664C19.5128 39.4616 19.7144 39.5987 19.7144 39.7684ZM21.4215 39.703C21.4511 39.8695 21.2801 40.0407 21.0356 40.0862C20.7953 40.1301 20.5727 40.0272 20.5422 39.862C20.5124 39.6912 20.6866 39.5202 20.9265 39.4759C21.1714 39.4334 21.3905 39.5337 21.4215 39.703Z" fill="white"/>
</g>
<defs>
<clipPath id="clip0_286_273">
<rect width="53" height="53" fill="white"/>
</clipPath>
</defs>
</svg>
