<svg width="53" height="53" viewBox="0 0 53 53" fill="none" xmlns="http://www.w3.org/2000/svg">
<g clip-path="url(#clip0_291_200)">
<path d="M3.6127 46.375H12.0492V25.8996L0 16.873V42.7727C0 44.7705 1.6252 46.375 3.6127 46.375Z" fill="#4285F4"/>
<path d="M40.9508 46.375H49.3873C51.3852 46.375 53 44.7498 53 42.7623V16.873L40.9508 25.91" fill="#34A853"/>
<path d="M40.9508 10.2478V25.9097L53 16.8728V12.0593C53 7.58747 47.8967 5.04098 44.3254 7.72204" fill="#FBBC04"/>
<path d="M12.0492 25.8996V10.248L26.5 21.0861L40.9508 10.248V25.91L26.5 36.748" fill="#EA4335"/>
<path d="M0 12.0491V16.8729L12.0492 25.9098V10.2479L8.67461 7.71178C5.09297 5.03073 0 7.57721 0 12.0491Z" fill="#C5221F"/>
</g>
<defs>
<clipPath id="clip0_291_200">
<rect width="53" height="53" fill="white"/>
</clipPath>
</defs>
</svg>
