<svg width="53" height="53" viewBox="0 0 53 53" fill="none" xmlns="http://www.w3.org/2000/svg">
<g clip-path="url(#clip0_286_269)">
<path d="M3.98712 6.55811H47.8913V48.658H3.98712V6.55811Z" fill="white"/>
<path d="M0.0529785 3.79727C0.0529785 1.70068 1.80337 0 3.96161 0H49.0383C51.1966 0 52.947 1.70068 52.947 3.79727V49.2049C52.947 51.3014 51.1966 53 49.0383 53H3.96161C1.80337 53 0.0529785 51.3014 0.0529785 49.2049V3.79727Z" fill="#0A66C2"/>
<path d="M16.1273 44.3539V20.4932H8.21228V44.3539H16.1273ZM12.1719 17.2366C14.9313 17.2366 16.6498 15.4039 16.6498 13.1137C16.5988 10.7723 14.9313 8.99072 12.225 8.99072C9.51658 8.99072 7.74707 10.7723 7.74707 13.1137C7.74707 15.4039 9.46347 17.2366 12.1209 17.2366H12.1719ZM20.5075 44.3539H28.4225V31.0294C28.4225 30.3163 28.4734 29.6033 28.6837 29.0945C29.2552 27.6684 30.5573 26.1934 32.7453 26.1934C35.6088 26.1934 36.7538 28.3815 36.7538 31.5892V44.3517H44.6688V30.6718C44.6688 23.3433 40.7644 19.9334 35.5578 19.9334C31.2881 19.9334 29.4145 22.3237 28.3715 23.952H28.4246V20.4932H20.5075C20.6116 22.7324 20.5075 44.3539 20.5075 44.3539Z" fill="white"/>
</g>
<defs>
<clipPath id="clip0_286_269">
<rect width="53" height="53" fill="white"/>
</clipPath>
</defs>
</svg>
